<?xml version="1.0" standalone="no"?>
<!DOCTYPE svg PUBLIC "-//W3C//DTD SVG 20010904//EN"
 "http://www.w3.org/TR/2001/REC-SVG-20010904/DTD/svg10.dtd">
<svg version="1.0" xmlns="http://www.w3.org/2000/svg"
 width="844.000000pt" height="844.000000pt" viewBox="0 0 844.000000 844.000000"
 preserveAspectRatio="xMidYMid meet">
<metadata>
Created by potrace 1.11, written by Peter Selinger 2001-2013
</metadata>
<g transform="translate(0.000000,844.000000) scale(0.100000,-0.100000)"
fill="#000000" stroke="none">
<path d="M5320 7583 c-106 -407 -301 -817 -563 -1188 -222 -314 -509 -614
-822 -861 -218 -171 -446 -433 -616 -706 -127 -205 -250 -478 -306 -678 -13
-47 -47 -185 -50 -200 -1 -3 -4 -27 -8 -55 -4 -27 -9 -59 -11 -70 -19 -102
-25 -405 -11 -545 24 -243 94 -506 203 -757 24 -56 44 -104 44 -107 0 -3 -24
9 -52 28 -188 120 -482 237 -713 285 -156 32 -160 32 -340 36 -152 4 -345 -12
-374 -29 -12 -8 -217 -62 -281 -75 -30 -6 -66 -14 -80 -16 -127 -27 -317 -41
-495 -39 -177 2 -215 5 -325 24 -30 5 -69 12 -86 15 -56 9 -208 56 -294 90
-46 19 -85 33 -86 32 -1 -1 17 -58 41 -127 69 -206 147 -380 267 -600 174
-319 435 -631 698 -837 159 -124 401 -259 560 -313 36 -12 74 -26 85 -30 76
-31 301 -75 440 -87 143 -12 435 -6 531 11 10 2 40 6 65 10 62 9 101 16 119
21 8 2 30 7 48 10 145 24 447 119 657 205 98 40 115 54 57 45 -114 -17 -401
-7 -582 20 -90 14 -110 17 -170 30 -14 3 -34 7 -45 9 -191 39 -461 137 -670
245 -167 87 -487 302 -471 318 2 3 35 -11 73 -31 260 -134 728 -293 1003 -340
19 -3 46 -8 60 -11 14 -3 45 -8 70 -11 25 -3 53 -8 63 -10 142 -27 598 -26
763 2 77 12 85 17 156 96 40 45 80 88 88 97 107 115 320 412 481 668 120 190
301 546 394 771 31 75 60 146 65 157 76 168 226 688 276 955 16 86 51 300 60
370 3 30 7 62 8 70 6 49 20 209 19 228 0 29 17 29 18 0 1 -13 3 -32 4 -43 14
-110 20 -428 10 -540 -2 -27 -7 -84 -10 -125 -3 -41 -8 -86 -10 -100 -2 -14
-6 -47 -10 -75 -14 -119 -58 -355 -91 -488 -8 -34 -17 -70 -19 -80 -30 -129
-134 -449 -207 -632 -118 -300 -271 -606 -465 -932 -32 -54 -61 -102 -65 -108
-31 -40 -206 -311 -203 -313 6 -6 233 132 370 224 559 379 1049 862 1380 1364
139 212 219 356 322 590 107 239 200 581 238 870 27 199 26 613 0 795 -3 17
-7 48 -10 70 -16 120 -54 302 -87 420 -10 39 -21 77 -23 86 -6 27 -42 140 -78
244 -118 337 -333 759 -571 1124 -127 194 -402 570 -417 571 -4 0 -12 -21 -19
-47z"/>
<path d="M7725 5363 c-129 -20 -218 -56 -304 -121 -317 -241 -302 -729 30
-951 108 -72 195 -96 346 -95 l91 0 -20 -50 c-11 -28 -28 -71 -38 -96 -58
-145 -213 -457 -305 -612 -405 -682 -942 -1270 -1563 -1711 -278 -197 -615
-393 -882 -512 -47 -21 -112 -50 -145 -65 -151 -69 -485 -187 -730 -259 -83
-25 -385 -98 -435 -106 -20 -3 -49 -10 -65 -15 -31 -9 -19 -9 90 5 56 7 170
26 215 36 25 6 59 13 75 16 42 6 296 70 380 95 39 11 75 21 80 23 6 1 17 5 25
8 8 3 53 18 100 33 285 91 687 265 945 407 39 21 99 55 135 74 36 20 71 41 79
47 7 5 22 15 32 21 67 36 423 278 487 330 9 8 55 44 102 81 217 172 518 457
697 659 467 528 834 1124 1125 1830 69 169 86 236 86 345 0 105 -14 164 -65
269 -74 153 -253 284 -421 307 -59 8 -122 11 -147 7z"/>
</g>
</svg>
